<svg id="Layer_1" data-name="Layer 1" xmlns="http://www.w3.org/2000/svg" xmlns:xlink="http://www.w3.org/1999/xlink" viewBox="0 0 150.03 119.12" width="406" height="306" class="illustration styles_illustrationTablet__1DWOa"><defs><linearGradient id="linear-gradient" x1="56.17" y1="79.01" x2="50.54" y2="155.08" gradientUnits="userSpaceOnUse"><stop offset="0.01"></stop><stop offset="0.08" stop-opacity="0.69"></stop><stop offset="0.21" stop-opacity="0.32"></stop><stop offset="1" stop-opacity="0"></stop></linearGradient><linearGradient id="linear-gradient-2" x1="125.04" y1="77.79" x2="119.4" y2="153.87" xlink:href="#linear-gradient"></linearGradient><linearGradient id="linear-gradient-3" x1="286.79" y1="1609.98" x2="360.63" y2="1606.71" gradientTransform="translate(1014.98 -1242.19) rotate(46.55)" xlink:href="#linear-gradient"></linearGradient><linearGradient id="linear-gradient-4" x1="259.83" y1="-279.45" x2="309.16" y2="-186.08" gradientTransform="matrix(0.92, 0, 0, 0.98, -161.2, 319.59)" xlink:href="#linear-gradient"></linearGradient><linearGradient id="linear-gradient-5" x1="269.67" y1="-284.65" x2="319" y2="-191.28" gradientTransform="matrix(0.92, 0, 0, 0.98, -161.21, 319.54)" xlink:href="#linear-gradient"></linearGradient><linearGradient id="linear-gradient-6" x1="-35.22" y1="435.36" x2="-23.71" y2="461.71" gradientTransform="matrix(1, 0.03, -0.03, 1, 123.18, -353.89)" xlink:href="#linear-gradient"></linearGradient><linearGradient id="linear-gradient-7" x1="-1869.91" y1="1503.22" x2="-1889.07" y2="1519.55" gradientTransform="matrix(0.84, 0.54, -0.54, 0.84, 2482.37, -174.38)" gradientUnits="userSpaceOnUse"><stop offset="0.01"></stop><stop offset="0.13" stop-opacity="0.69"></stop><stop offset="0.25" stop-opacity="0.32"></stop><stop offset="1" stop-opacity="0"></stop></linearGradient><linearGradient id="linear-gradient-8" x1="-295.91" y1="1517.49" x2="-267.05" y2="1490.81" gradientTransform="matrix(0.84, 0.54, -0.54, 0.84, 1138.65, -1025.52)" xlink:href="#linear-gradient-7"></linearGradient><linearGradient id="linear-gradient-9" x1="117.9" y1="43.17" x2="118.4" y2="27.4" gradientUnits="userSpaceOnUse"><stop offset="0.01" stop-color="#fff"></stop><stop offset="1" stop-color="#fff" stop-opacity="0"></stop></linearGradient><linearGradient id="linear-gradient-10" x1="121.6" y1="38.52" x2="114.06" y2="31.86" xlink:href="#linear-gradient-9"></linearGradient></defs><title>14</title><path d="M39.57,131a32.32,32.32,0,0,1-14.88-6.6c-5.09-4-10.62-9.39-10.45-16.08C14.42,101.22,17.07,94.39,20,88c3.87-8.63,9.27-17.73,7.84-27.34-1.41-9.46.49-21.11,5.55-29.25,8-12.82,22-15.93,36-16.23,9.25-.19,18.77.36,27.2,4.17,8.86,4,15.95,11.39,25,14.83,6,2.26,12.56,2.71,18.43,5.25,7.39,3.21,13.09,9.57,16.79,16.73s5.56,15.11,6.95,23c2.34,13.35-3.22,30-11.23,40.93C147.16,127.39,138.22,135.8,129,134,82.26,125.08,91.25,139.34,39.57,131Z" transform="translate(-14.24 -15.15)" fill="#4ea397" opacity="0.18" style="isolation: isolate;"></path><path d="M151.11,61.52a4.76,4.76,0,0,1-4.75,4.76H134.13a4.76,4.76,0,0,1,0-9.52h1.76a2.54,2.54,0,0,1,0-.39,4.37,4.37,0,1,1,8.74-.15v.15c0,.13,0,.26,0,.39h1.75a4.76,4.76,0,0,1,4.76,4.76Z" transform="translate(-14.24 -15.15)" fill="#4ea397" opacity="0.31" style="isolation: isolate;"></path><path d="M149.63,61.07a4.76,4.76,0,0,1-4.75,4.76H132.66a4.76,4.76,0,1,1,0-9.52h1.75c0-.13,0-.26,0-.38a4.38,4.38,0,1,1,8.75,0h0c0,.13,0,.26,0,.39h1.75A4.75,4.75,0,0,1,149.63,61.07Z" transform="translate(-14.24 -15.15)" fill="#fff"></path><g id="G8KHDO"><path d="M36.46,72.28a1.36,1.36,0,0,1,.4-1,5.06,5.06,0,0,0,1.26-2.2A2.61,2.61,0,0,0,37,66.26a5,5,0,0,0-1.83-.89,1.43,1.43,0,0,1-1-1.56c.05-.44.1-.88.14-1.32a1.51,1.51,0,0,1,1.61-1.38,4.89,4.89,0,0,0,1.84-.42,2.7,2.7,0,0,0,1.6-3.39,13.29,13.29,0,0,0-.63-1.65,1.48,1.48,0,0,1,.45-1.8c.33-.27.68-.5,1-.78a1.58,1.58,0,0,1,2,.06,5.31,5.31,0,0,0,1.66,1.11,2.72,2.72,0,0,0,3.35-.89,6.4,6.4,0,0,0,.94-1.93,1.44,1.44,0,0,1,1.61-1c.44.07.87.13,1.31.18A1.41,1.41,0,0,1,52.3,52a5.57,5.57,0,0,0,.64,2.39,2.77,2.77,0,0,0,2.87,1.29,6.66,6.66,0,0,0,1.8-.64,1.5,1.5,0,0,1,2,.5c.25.38.58.71.83,1.09a1.38,1.38,0,0,1-.15,1.77,5.5,5.5,0,0,0-1.14,1.76,2.71,2.71,0,0,0,1.3,3.52,8.13,8.13,0,0,0,1.51.66,1.44,1.44,0,0,1,1,1.43c0,.53-.1,1.06-.18,1.58a1.4,1.4,0,0,1-1.42,1.23,5.21,5.21,0,0,0-2.23.55A2.63,2.63,0,0,0,57.71,72a5.75,5.75,0,0,0,.63,1.9,1.45,1.45,0,0,1-.46,2l-.9.7a1.45,1.45,0,0,1-2-.07,5.45,5.45,0,0,0-1.85-1.14,2.68,2.68,0,0,0-3.19,1A6.44,6.44,0,0,0,49,78.32a1.4,1.4,0,0,1-1.52,1L46,79.1a1.43,1.43,0,0,1-1.14-1.3,5.74,5.74,0,0,0-.54-2.3A2.67,2.67,0,0,0,41.22,74a11.07,11.07,0,0,0-1.77.66,1.49,1.49,0,0,1-1.78-.34,12.69,12.69,0,0,1-1-1.23,4.5,4.5,0,0,1-.32-.82ZM48.6,60.14a4.74,4.74,0,0,0-4.77,4.73,4.8,4.8,0,0,0,4.62,4.74,4.74,4.74,0,1,0,.15-9.47Z" transform="translate(-14.24 -15.15)" fill="#4ea397"></path><path d="M72.45,58.54c0,.18,0,.36,0,.54a1,1,0,0,1-.81,1l-1,.25a1.1,1.1,0,0,1-1.3-.6,6.1,6.1,0,0,0-.72-1.14,2.05,2.05,0,0,0-3-.35,9,9,0,0,0-.91.83,1.1,1.1,0,0,1-1.39.24l-.81-.48A1.14,1.14,0,0,1,62,57.28a5.2,5.2,0,0,0,.28-1.4,2,2,0,0,0-1.78-2.15c-.5-.08-1,0-1.53-.1a1,1,0,0,1-1-.93,5.74,5.74,0,0,0-.19-.82,1.13,1.13,0,0,1,.62-1.35,6.67,6.67,0,0,0,1.33-.91A1.93,1.93,0,0,0,60,47.07a5.43,5.43,0,0,0-.84-1,1.17,1.17,0,0,1-.26-1.7c.14-.23.27-.47.42-.7a1.1,1.1,0,0,1,1.4-.47,3.82,3.82,0,0,0,1.77.28A1.88,1.88,0,0,0,64.23,42a6.36,6.36,0,0,0,.16-1.63,1.17,1.17,0,0,1,.76-1.17c.37-.11.74-.19,1.11-.27a1,1,0,0,1,1.28.68,4,4,0,0,0,1.13,1.5A2.08,2.08,0,0,0,71.29,41a6.37,6.37,0,0,0,.8-.76A1.14,1.14,0,0,1,73.51,40l.93.55a1.07,1.07,0,0,1,.44,1.34,4.19,4.19,0,0,0-.3,1.64,2,2,0,0,0,1.75,2,8.93,8.93,0,0,0,1.37.09,1.07,1.07,0,0,1,1.17.94c.08.32.17.63.24,1a1,1,0,0,1-.63,1.2,4.24,4.24,0,0,0-1.4,1A1.89,1.89,0,0,0,76.76,52a6.81,6.81,0,0,0,1,1.26A1.12,1.12,0,0,1,78,54.8l-.45.75a1.1,1.1,0,0,1-1.46.51A3.37,3.37,0,0,0,74,55.89a2,2,0,0,0-1.4,1.55,9.87,9.87,0,0,0-.16,1.09Zm-4-12.46a3.53,3.53,0,0,0-3.57,3.54,3.57,3.57,0,1,0,7.13,0A3.52,3.52,0,0,0,68.43,46.08Z" transform="translate(-14.24 -15.15)" fill="#4ea397"></path></g><path d="M63.31,108.89l11.59.9a3.26,3.26,0,0,1,1.57.39,2.11,2.11,0,0,1,.67,2.37,4.62,4.62,0,0,1-1.58,2.06C71.35,118,65.44,118.17,60,118.14L34.4,118a7,7,0,0,1-2.91-.43A2.4,2.4,0,0,1,30,115.24a3.05,3.05,0,0,1,1.62-2A20.49,20.49,0,0,1,39,110.87q5.85-1.05,11.72-2" transform="translate(-14.24 -15.15)" fill="url(#linear-gradient)"></path><path d="M132.18,107.68l11.59.89a3.16,3.16,0,0,1,1.57.4,2.11,2.11,0,0,1,.67,2.36,4.59,4.59,0,0,1-1.59,2.06c-4.2,3.44-10.11,3.57-15.54,3.53l-25.61-.15a7.13,7.13,0,0,1-2.91-.43A2.4,2.4,0,0,1,98.84,114a3,3,0,0,1,1.62-2,20.67,20.67,0,0,1,7.42-2.35q5.85-1.05,11.72-2" transform="translate(-14.24 -15.15)" fill="url(#linear-gradient-2)"></path><path d="M124.76,110a4,4,0,0,1-.33,1.75,2.86,2.86,0,0,1-1.26,1.17,5,5,0,0,1-3.7.36.54.54,0,0,1-.51-.62,2.79,2.79,0,0,1,1-1.74,5.91,5.91,0,0,0,1.34-1.53c.56-1.14.14-4.19,2.3-3.7C125.37,106.07,124.81,108.7,124.76,110Z" transform="translate(-14.24 -15.15)" fill="#ce9e95"></path><path d="M125.06,112s.3.75-.07,1.19-4.25,2.85-6.86.91,3.54-2.19,3.54-2.19Z" transform="translate(-14.24 -15.15)" fill="#4ea397"></path><path d="M124.91,110.28a.56.56,0,0,0-.7.18,2.28,2.28,0,0,1-2.08.75c-.85-.2-1.19-1.18-1.61-1.19s-2.68,1.92-2.81,2.74,1,1.43,2.3,1.51,4.16-.8,4.71-1.47A2.73,2.73,0,0,0,124.91,110.28Z" transform="translate(-14.24 -15.15)" fill="#fff"></path><path d="M132.16,111.15a4,4,0,0,1-.33,1.75,2.86,2.86,0,0,1-1.26,1.17,5,5,0,0,1-3.7.37.73.73,0,0,1-.43-.26.67.67,0,0,1-.08-.37,2.79,2.79,0,0,1,1-1.74,5.91,5.91,0,0,0,1.34-1.53c.56-1.14.14-4.19,2.3-3.7C132.77,107.25,132.21,109.88,132.16,111.15Z" transform="translate(-14.24 -15.15)" fill="#ce9e95"></path><path d="M132.46,113.22s.3.75-.07,1.19-4.25,2.85-6.86.91,3.53-2.19,3.53-2.19Z" transform="translate(-14.24 -15.15)" fill="#4ea397"></path><path d="M132.31,111.47a.54.54,0,0,0-.7.18,2.3,2.3,0,0,1-2.08.74c-.85-.2-1.19-1.18-1.61-1.19s-2.68,1.92-2.81,2.74,1,1.43,2.3,1.51,4.16-.8,4.71-1.47A2.71,2.71,0,0,0,132.31,111.47Z" transform="translate(-14.24 -15.15)" fill="#fff"></path><path d="M133.7,79.3s.41,22.16-1.24,29.56l-4.16.51L125.41,79Z" transform="translate(-14.24 -15.15)" fill="#473f47"></path><path d="M120.83,76.88s-2,12,.42,31.16l4.16.51L128.3,78.2Z" transform="translate(-14.24 -15.15)" fill="#473f47"></path><path d="M116,67.34c0,.8.31,1.5,1,1.73a.61.61,0,0,0,.18.05c1.28.26,3-.71,4.13-1.56a15.79,15.79,0,0,0,1.39-1.14V57.86l-6.22,6.37A9.82,9.82,0,0,0,116,67.34Z" transform="translate(-14.24 -15.15)" fill="#4ea397"></path><path d="M121.21,67.53c0,.4,0,.81,0,1.21,0,2.21.51,4.49-.15,6.66a2.46,2.46,0,0,0-.18,1.48,1.84,1.84,0,0,0,.93.89,18.61,18.61,0,0,0,6.4,1.7c1.65.23,4,.72,5.53-.17a2.76,2.76,0,0,0,1.08-1.79,33.42,33.42,0,0,0,1-7c0-.3,0-.61.06-.92.13-2.11.17-4.24.13-6.35,0-1.54-.15-3.2-1.15-4.36A11,11,0,0,0,129,56a6.65,6.65,0,0,0-1.94-.11,8.16,8.16,0,0,0-2.61.89,4.4,4.4,0,0,0-2.32,1.85A13,13,0,0,0,121,62.11a12.77,12.77,0,0,0-.06,3.44c.06.56.2,1.12.26,1.67C121.21,67.33,121.21,67.43,121.21,67.53Z" transform="translate(-14.24 -15.15)" fill="#4ea397"></path><path d="M130.24,80.05c.64.19,2.12-.39,2.61-.48.29,0,.56-.2.85-.27,1.47-.37,1.64-4.48,1.78-5.59a76.77,76.77,0,0,0,1-8.89,9.75,9.75,0,0,0-.39-3.36A3.88,3.88,0,0,0,133.9,59c-1.87-.67-2.43,5.25-2.69,6.47l-1.4,6.69a15.24,15.24,0,0,0-.39,2.51,8.82,8.82,0,0,0,.63,3c.17.59-.3,1.7-.07,2.13A.37.37,0,0,0,130.24,80.05Z" transform="translate(-14.24 -15.15)" fill="#020202" opacity="0.1"></path><path d="M125.73,54.13a1.39,1.39,0,0,0,.9.45,5.08,5.08,0,0,0,.87,0h.17a.2.2,0,0,1,.11,0,.22.22,0,0,1,.06.13,10.12,10.12,0,0,1,0,1.74h0l0,.31a.61.61,0,0,0,0,.33c.06.13.21.18.35.23a2.38,2.38,0,0,0,.79.13,3.5,3.5,0,0,0,1.6-.56,15.53,15.53,0,0,1,.16-3,15.9,15.9,0,0,0,.38-3.81,2.49,2.49,0,0,0-.53-1.38,2.44,2.44,0,0,0-1.89-.68,4.73,4.73,0,0,0-2.59.71c-.29.19-.32.44-.39.76-.09.5-.17,1-.23,1.52s-.1,1.15-.11,1.74A2,2,0,0,0,125.73,54.13Z" transform="translate(-14.24 -15.15)" fill="#ce9e95"></path><path d="M126.33,47.05a.81.81,0,0,0-.67.73.8.8,0,0,0,.59.8.81.81,0,0,0,.65.9,2.3,2.3,0,0,0,1.21-.15,1.39,1.39,0,0,0,1.78.33v.23a3.76,3.76,0,0,1,.35,1.27l-.11.85a.84.84,0,0,1,.92-.74.44.44,0,0,1,.34.11.48.48,0,0,1,.07.2.82.82,0,0,1-.32.69c-.15.1-.34.17-.41.34a.86.86,0,0,0,0,.5.93.93,0,0,1-.06.57l.28-.07a1.19,1.19,0,0,0,.23-.16.77.77,0,0,0,.19-.63.93.93,0,0,0,.88-1.24.56.56,0,0,0,.48-.64,1.69,1.69,0,0,0-.4-.8.89.89,0,0,0,.88-.89,1.4,1.4,0,0,1,0-.41,1.67,1.67,0,0,1,.24-.43.9.9,0,0,0-.17-1.06c-.2-.18-.48-.27-.63-.49a2.3,2.3,0,0,1-.15-.64c-.18-.81-1.08-1.19-1.87-1.45a1.53,1.53,0,0,0-.67-.11.52.52,0,0,0-.47.42,1.39,1.39,0,0,0-.76-.32c-.27,0-.57.25-.5.51-.11-.44-.85.7-.89.73C126.85,46.3,126.1,46,126.33,47.05Z" transform="translate(-14.24 -15.15)" fill="#473f47"></path><path d="M127.5,54.6h.17a.2.2,0,0,1,.11,0,.22.22,0,0,1,.06.13,10.12,10.12,0,0,1,0,1.74h0A2.34,2.34,0,0,0,129.48,54a9.71,9.71,0,0,1-2,.58Z" transform="translate(-14.24 -15.15)" fill="#af807a"></path><path d="M110.76,65.13a12.24,12.24,0,0,0,3,3,6,6,0,0,0,2.81,1,.86.86,0,0,0,.39-.05,1.06,1.06,0,0,0,.54-.37,3.11,3.11,0,0,0,.72-1.77c.07-1.71-1.78-2.7-1.78-2.7s-4.21-1.34-4.71-1.12c-.27.11-.53.71-.71,1.22S110.76,65.13,110.76,65.13Z" transform="translate(-14.24 -15.15)" fill="#4ea397"></path><path d="M110.76,65.13a12.24,12.24,0,0,0,3,3,6,6,0,0,0,2.81,1,.86.86,0,0,0,.39-.05.61.61,0,0,0,.18.05c1.28.26,3-.71,4.13-1.56v0l-.4-2.56a10.27,10.27,0,0,1-2.64,2,3.74,3.74,0,0,1-2.26.41,2.24,2.24,0,0,1-.61-.18A19.51,19.51,0,0,1,111,64.33C110.86,64.76,110.76,65.13,110.76,65.13Z" transform="translate(-14.24 -15.15)" fill="#020202" opacity="0.1"></path><path d="M138.63,67.92a9.89,9.89,0,0,1,.82,4.68c-.28,1.92-1.56,3.53-2.79,5-1,.15-2.23.13-2.58-.79a2.3,2.3,0,0,1-.06-.91l.14-2a7.3,7.3,0,0,0-.14-2.64,11.91,11.91,0,0,0-1.49-2.64A10.17,10.17,0,0,1,131,64c-.11-1.54,1.06-6.52,3.33-5,.94.62,1.78,3.18,2.28,4.21Q137.75,65.52,138.63,67.92Z" transform="translate(-14.24 -15.15)" fill="#4ea397"></path><path d="M133.5,79a.46.46,0,0,0-.08.25.15.15,0,0,0,.2.14c.23.71-.25,1.46-.25,2.21a.68.68,0,0,0,0,.2.47.47,0,0,0,.17.2.88.88,0,0,0,.85.05,2.28,2.28,0,0,0,.71-.53,3.56,3.56,0,0,0,.95-1.44,4.12,4.12,0,0,0,.14-.78l.24-2C135,76.85,134.18,77.82,133.5,79Z" transform="translate(-14.24 -15.15)" fill="#ce9e95"></path><path d="M111,61.47a.8.8,0,0,0-.22-.35.25.25,0,0,0-.36,0,.56.56,0,0,0-.07.23.49.49,0,0,1-.45.29,1.54,1.54,0,0,1-.55-.14,15.92,15.92,0,0,0-1.53-.47.59.59,0,0,0-.37,0,.52.52,0,0,0-.26.32,2,2,0,0,0,.32,1.88,3.23,3.23,0,0,0,1.64,1.08,8.59,8.59,0,0,0,2,.29.89.89,0,0,0,.49-.07C112.44,64.07,111.23,62,111,61.47Z" transform="translate(-14.24 -15.15)" fill="#ce9e95"></path><path d="M62.89,76.41s0,9.26-.66,10.94c-1.71,4.7-4,6.62-4,6.62q-1.35,5.11-2.68,10.23c.87,1,2.32,2,3.3,1.13a2.66,2.66,0,0,0,.59-.9l4.71-10.26a26.23,26.23,0,0,0,2.26-6.3l0-.19v-.05c0-.13.07-.56.13-1.18v0c.15-1.81-.15-10.37-1-12.62,0,0-3.17,1.09-4.08-.15Z" transform="translate(-14.24 -15.15)" fill="#4ea397"></path><path d="M62.89,76.41s0,9.26-.66,10.94c-1.71,4.7-4,6.62-4,6.62q-1.35,5.11-2.68,10.23c.87,1,2.32,2,3.3,1.13a2.66,2.66,0,0,0,.59-.9l4.71-10.26a26.23,26.23,0,0,0,2.26-6.3l0-.19v-.05c0-.13.07-.56.13-1.18v0c.15-1.81-.12-8.74-.92-11a3.15,3.15,0,0,1-2.81-.91Z" transform="translate(-14.24 -15.15)" fill="url(#linear-gradient-3)"></path><path d="M55,75.08a5.68,5.68,0,0,0-.89,4.22c.32,2.21,1.9,4,2.22,6.18a2.55,2.55,0,0,1-1.63,2.66l-6.16,3.18a6.33,6.33,0,0,0-2.68,2.09,2.2,2.2,0,0,0,.52,3L58.24,94A10.87,10.87,0,0,0,63,87.86c.45-1.73-.16-13.32-.16-13.32-1.92-1.84-2.58-1.15-3.77-2.55C57.64,73.07,56.07,73.63,55,75.08Z" transform="translate(-14.24 -15.15)" fill="#4ea397"></path><path d="M45.44,98.31c0,.67.13,1.47-.38,1.92a.24.24,0,0,1-.17.09.38.38,0,0,1-.26-.11c-1.17-1-1.48-2.67-1.58-4.21a1.68,1.68,0,0,1,.19-1.13,1.92,1.92,0,0,1,1-.55A10.43,10.43,0,0,0,46,93.6c-.17.09-.11,1.09-.11,1.26A5.57,5.57,0,0,1,46,96a9.51,9.51,0,0,1-.39,1A4.19,4.19,0,0,0,45.44,98.31Z" transform="translate(-14.24 -15.15)" fill="#ec9c7d"></path><path d="M58.41,107.82a2.93,2.93,0,0,1,.48,1.61.47.47,0,0,1-.12.28c-.21.2-.55.06-.78-.1a10,10,0,0,1-2.24-2.51.84.84,0,0,1-.19-.39.93.93,0,0,1,.16-.55l.68-1.25a.27.27,0,0,1,.08-.1.22.22,0,0,1,.14,0,5.53,5.53,0,0,1,1.05.32c.46.19.47.21.42.68A4,4,0,0,0,58.41,107.82Z" transform="translate(-14.24 -15.15)" fill="#ec9c7d"></path><path d="M55,107.82a.35.35,0,0,0,0,.2c0,.09.11.15.18.2a7.29,7.29,0,0,1,1.08,1.07,21.28,21.28,0,0,0,2.31,2,1.64,1.64,0,0,0,1.19.5.38.38,0,0,0,.15,0,.33.33,0,0,0,.09-.21,3.73,3.73,0,0,0-.33-2,2.17,2.17,0,0,0-.4-.67.94.94,0,0,0-.71-.3c-.29,0-.55.24-.85.24a1.14,1.14,0,0,1-.74-.46,6.57,6.57,0,0,1-.63-.84c-.14-.22-.27-.62-.5-.76C55.31,106.41,55.1,107.48,55,107.82Z" transform="translate(-14.24 -15.15)" fill="#4ea397"></path><path d="M42.41,95.14a.33.33,0,0,0-.1.49,8.73,8.73,0,0,1,.34,1.69,23.18,23.18,0,0,0,.9,3.39,1.93,1.93,0,0,0,.81,1.24.39.39,0,0,0,.18,0,.44.44,0,0,0,.22-.14,4.35,4.35,0,0,0,1-2.12,2.27,2.27,0,0,0,0-.9,1.06,1.06,0,0,0-.48-.73c-.29-.16-.67-.12-.95-.32a1.21,1.21,0,0,1-.41-.9,8,8,0,0,1-.06-1.19c0-.31.13-.77,0-1C43.59,94,42.71,94.88,42.41,95.14Z" transform="translate(-14.24 -15.15)" fill="#4ea397"></path><path d="M66.41,52.68a12.63,12.63,0,0,1-1.18,4A.6.6,0,0,1,65,57a.65.65,0,0,1-.34.06L60,57c-.37,0-.83-.06-1-.41-.15.31-.58.33-.92.29a12.08,12.08,0,0,1-4.26-1.32,35.65,35.65,0,0,1,1.94-5.29,5.87,5.87,0,0,1,1.09-1.64A5.69,5.69,0,0,1,59,47.35c2-.72,4.85-1.12,6.38.73A6,6,0,0,1,66.41,52.68Z" transform="translate(-14.24 -15.15)" fill="#f89659"></path><path d="M66.27,59.3c1.87,1.93,3.79,3.83,5.62,5.8A15,15,0,0,1,73.69,64c.84-.34,6.31-3.11,8.42-3.54a6.77,6.77,0,0,1,3.4.18.71.71,0,0,1,.44.31c.15.3-.18.63-.5.7a5.39,5.39,0,0,0-1,.17,2.11,2.11,0,0,0-.67.63,3.88,3.88,0,0,1-2.87,1.3c-.45,0-.91-.22-1.35-.19a4,4,0,0,0-1.63.91c-1.47,1-2.78,2.27-4.27,3.27a2.11,2.11,0,0,1-1,.44,2.34,2.34,0,0,1-1-.23,17.57,17.57,0,0,1-6-3.41,1.56,1.56,0,0,1-.35-.46,1.77,1.77,0,0,1-.08-.56c0-.78,0-1.57,0-2.35a2.3,2.3,0,0,1,.23-1,.82.82,0,0,1,.9-.42" transform="translate(-14.24 -15.15)" fill="#fdb9a9"></path><path d="M69.83,65.41a2.52,2.52,0,0,0,.59.36,3.39,3.39,0,0,0,1.46.14,13.84,13.84,0,0,1,2.23.13,1.18,1.18,0,0,1,.53.17.43.43,0,0,1,.18.48.69.69,0,0,1-.21.24,4.17,4.17,0,0,1-2,1.08A4.2,4.2,0,0,1,70,67.18l-1.64-1a1.75,1.75,0,0,1-.63-.51c-.23-.36-.28-1.35.28-1.45S69.46,65.16,69.83,65.41Z" transform="translate(-14.24 -15.15)" fill="#de9f93"></path><path d="M65.31,58c-.59-.45-1.28-.14-2-.11s-1.61.06-2.41,0c-1.53-.05-4-.21-5.41,1.46-1.68,2-.36,5.3.51,7.4a5.81,5.81,0,0,1,.64,1.76,7.9,7.9,0,0,1,0,2.06,8.11,8.11,0,0,1-1.53,3.68,1.87,1.87,0,0,0-.58,1.38,1.59,1.59,0,0,0,.9,1,11.44,11.44,0,0,0,5.25,1.55,11.51,11.51,0,0,0,2.56-.33c.76-.12,1.59.14,2.15-.57a2.28,2.28,0,0,0,.36-.83c.64-2.41.63-5,1.59-7.28.51-1.24,1.37-2.74,1.29-4.12a5,5,0,0,0-.42-1.54c-.48-1.21-1-2.4-1.58-3.56A5.29,5.29,0,0,0,65.31,58Z" transform="translate(-14.24 -15.15)" fill="#fff"></path><path d="M63.42,58.5s-.5,1.26-3.83-.6c0,0,.9-.08.65-1.93a4,4,0,0,0-.65-1.78.32.32,0,0,0,.54-.15,3.27,3.27,0,0,0,.23.53c.52,1,1.66,2.19,2.93,1.85A2,2,0,0,0,63.17,58,2.4,2.4,0,0,0,63.42,58.5Z" transform="translate(-14.24 -15.15)" fill="#fdb9a9"></path><path d="M63.17,58l-.17,0c-1.25.13-2.72-3.52-2.72-3.52l.08,0c.52,1,1.66,2.19,2.93,1.85A2,2,0,0,0,63.17,58Z" transform="translate(-14.24 -15.15)" fill="#de9f93"></path><path d="M62.22,56.56c1.82.16,2.94-1.55,3.14-3.78q0-.37,0-.75a9,9,0,0,0-.25-2.16c-.8-3.43-5.67-2.06-5.67-2.06C55.64,49.53,59,56.3,62.22,56.56Z" transform="translate(-14.24 -15.15)" fill="#fdb9a9"></path><path d="M63.52,47.74a5.88,5.88,0,0,1-.23.79,14.93,14.93,0,0,1-.55,1.59,5,5,0,0,1-2,2.53,1.25,1.25,0,0,1-.74.23c-.25-.05-.23-.24-.42-.42a.44.44,0,0,0-.49-.08.53.53,0,0,0-.2.44,1.2,1.2,0,0,0,.57,1,2.59,2.59,0,0,1,.46.26c.17.15.19.37.28.56l.3.71a1.54,1.54,0,0,1,.16.72,1,1,0,0,1-.49.69,3.22,3.22,0,0,1-2.15.28,3.1,3.1,0,0,1-1.46-.46,7,7,0,0,1-.69-.64,5.08,5.08,0,0,0-1.14-.63,4.19,4.19,0,0,0,1.07-1.07,3.19,3.19,0,0,0,.3-2.66c-.16-.56,0-3.54,2.1-4.53a6.85,6.85,0,0,1,4.29-.4,1.45,1.45,0,0,1,.72.33A.8.8,0,0,1,63.52,47.74Z" transform="translate(-14.24 -15.15)" fill="#f89659"></path><path d="M60.28,68.58l-1.39,3.07a25.48,25.48,0,0,1-4.15-7.8c-1-3.57.77-4.47.77-4.47,1.36-.5,2.28,1.43,3.61,5.34C59.85,66.87,60.28,68.58,60.28,68.58Z" transform="translate(-14.24 -15.15)" fill="#fdb9a9"></path><path d="M58.89,71.65s-.06-2.5,1.16-3,9.74-1.84,9.74-1.84l.8.93S62.22,72.57,58.89,71.65Z" transform="translate(-14.24 -15.15)" fill="#fdb9a9"></path><path d="M72.71,78.24l-.11-.11c.42.47.7.8.78.9C73.17,78.76,72.94,78.49,72.71,78.24Z" transform="translate(-14.24 -15.15)" fill="#dc9bd5"></path><path d="M70.71,66.68a15,15,0,0,1,2.21-.22,4.75,4.75,0,0,1,1.19.1,6.76,6.76,0,0,1,1.41.55c.12.06.27.14.29.28a.33.33,0,0,1-.19.31,1.73,1.73,0,0,1-.37.11c-.27.09-.51.27-.77.38-.42.17-.9.15-1.33.3-.27.1-.52.27-.79.38a2.43,2.43,0,0,1-1.76,0,5.86,5.86,0,0,1-.57-.26,3.15,3.15,0,0,0-.56-.26c-.13,0-.22,0-.32-.12a1,1,0,0,1,0-1,1.36,1.36,0,0,1,.91-.35Z" transform="translate(-14.24 -15.15)" fill="#fdb9a9"></path><path d="M54.2,60.6a10,10,0,0,0-.44,2l-.13.92a1,1,0,0,0,0,.58c.16.32.77.19,1.07.24l1.64.26,3.27.48a6.74,6.74,0,0,0,0-1.68c-.1-.52-.33-1-.46-1.53S59,61,58.9,60.61a4,4,0,0,0-1.49-2.2c-1.15-.84-2.83,1.19-3.18,2.11Z" transform="translate(-14.24 -15.15)" fill="#fff" style="isolation: isolate;"></path><rect x="61.38" y="30.09" width="34.94" height="31.4" fill="#fff"></rect><rect x="80.4" y="66.01" width="4.28" height="6.36" transform="translate(-14.56 -14.77) rotate(-0.26)" fill="#4ea397"></rect><rect x="85.66" y="59.39" width="4.28" height="12.95" transform="translate(-14.54 -14.75) rotate(-0.26)" fill="#4ea397"></rect><rect x="90.95" y="64.43" width="4.28" height="7.89" transform="translate(-14.55 -14.72) rotate(-0.26)" fill="#4ea397"></rect><rect x="96.2" y="55.24" width="4.28" height="17.06" transform="translate(-14.53 -14.7) rotate(-0.26)" fill="#4ea397"></rect><rect x="85.66" y="59.39" width="4.28" height="12.95" transform="translate(-14.54 -14.75) rotate(-0.26)" fill="url(#linear-gradient-4)"></rect><rect x="96.2" y="55.24" width="4.28" height="17.06" transform="translate(-14.53 -14.7) rotate(-0.26)" fill="url(#linear-gradient-5)"></rect><rect x="101.47" y="50.45" width="4.28" height="21.82" transform="translate(-14.52 -14.67) rotate(-0.26)" fill="#4ea397"></rect><polygon points="82.06 88.22 73.45 87.94 74.52 94.08 80.62 94.27 82.06 88.22" fill="#4ea397"></polygon><polygon points="82.06 88.22 73.45 87.94 74.52 94.08 80.62 94.27 82.06 88.22" fill="url(#linear-gradient-6)"></polygon><path d="M87,88.27a2.86,2.86,0,0,0-.31,1.39,18.52,18.52,0,0,0,.56,6.47c1,3.05,3.18,5.51,5.35,7.87-.17-.26.32-1.64.38-2,.13-.65.27-1.29.4-1.93A7,7,0,0,0,93.11,97,14.73,14.73,0,0,0,90,90.88,13.68,13.68,0,0,0,87,88.27Z" transform="translate(-14.24 -15.15)" fill="#4ea397"></path><path d="M87,88.27a2.86,2.86,0,0,0-.31,1.39,18.52,18.52,0,0,0,.56,6.47c1,3.05,3.18,5.51,5.35,7.87-.17-.26.32-1.64.38-2,.13-.65.27-1.29.4-1.93A7,7,0,0,0,93.11,97,14.73,14.73,0,0,0,90,90.88,13.68,13.68,0,0,0,87,88.27Z" transform="translate(-14.24 -15.15)" fill="url(#linear-gradient-7)"></path><path d="M96.62,95.63a20.13,20.13,0,0,0,1.74-5,6.73,6.73,0,0,0-1-5.09l-4.17,6.32a14.25,14.25,0,0,0-2,3.86,10.34,10.34,0,0,0,1.57,8.25c.93-.8,1.37-2.63,1.88-3.76Z" transform="translate(-14.24 -15.15)" fill="#4ea397"></path><path d="M96.62,95.63a20.13,20.13,0,0,0,1.74-5,6.73,6.73,0,0,0-1-5.09l-4.17,6.32a14.25,14.25,0,0,0-2,3.86,10.34,10.34,0,0,0,1.57,8.25c.93-.8,1.37-2.63,1.88-3.76Z" transform="translate(-14.24 -15.15)" fill="url(#linear-gradient-8)"></path><rect x="86.01" y="101.12" width="12.03" height="2.79" rx="1.4" transform="translate(-10.87 -18.07) rotate(1.85)" fill="#4ea397"></rect><circle cx="73.56" cy="42.38" r="0.71" fill="#4ea397"></circle><circle cx="67.59" cy="49.15" r="0.71" fill="#4ea397"></circle><circle cx="78.7" cy="47.81" r="0.71" fill="#4ea397"></circle><circle cx="83.8" cy="38.61" r="0.71" fill="#4ea397"></circle><circle cx="89.37" cy="34.16" r="0.71" fill="#4ea397"></circle><polygon points="67.75 49.29 67.42 49 73.56 42.05 78.65 47.67 83.66 38.44 89.23 33.98 89.5 34.33 83.97 38.75 78.74 48.44 73.56 42.71 67.75 49.29" fill="#4ea397"></polygon><path d="M102.56,35.28a3.66,3.66,0,0,1-3.65,3.66H89.52a3.66,3.66,0,0,1,0-7.32h1.35a2.71,2.71,0,0,1,0-.29,3.36,3.36,0,0,1,6.72-.12v.12a2.64,2.64,0,0,1,0,.29h1.35a3.65,3.65,0,0,1,3.65,3.66Z" transform="translate(-14.24 -15.15)" fill="#4ea397" opacity="0.31" style="isolation: isolate;"></path><path d="M101.43,34.93a3.66,3.66,0,0,1-3.66,3.66H88.39a3.66,3.66,0,1,1,0-7.31h1.34c0-.1,0-.2,0-.3a3.36,3.36,0,0,1,6.72,0h0a2.71,2.71,0,0,1,0,.29h1.34A3.67,3.67,0,0,1,101.43,34.93Z" transform="translate(-14.24 -15.15)" fill="#fff"></path><path d="M131.12,51a.3.3,0,0,1,.28,0,.29.29,0,0,1,.08.14,1,1,0,0,1-.47,1.29.66.66,0,0,1-.24.11.24.24,0,0,1-.24-.07.32.32,0,0,1-.08-.23A1.08,1.08,0,0,1,131.12,51Z" transform="translate(-14.24 -15.15)" fill="#ce9e95"></path><path d="M122.73,33.42a4.48,4.48,0,0,1-.63,2.3l0,.06-2,3.66H115.9l-1.7-3.95a4.51,4.51,0,1,1,8.53-2.07Z" transform="translate(-14.24 -15.15)" fill="#4ea397"></path><path d="M122.73,33.42a4.48,4.48,0,0,1-.63,2.3l0,.06-2,3.66H115.9l-1.7-3.95a4.52,4.52,0,0,1,1.42-5.76,4.47,4.47,0,0,1,2.6-.82A4.51,4.51,0,0,1,122.73,33.42Z" transform="translate(-14.24 -15.15)" fill="url(#linear-gradient-9)"></path><path d="M120.49,33.33c-.1,2-1.86,6.11-1.86,6.11H115.9l-1.7-3.95a4.52,4.52,0,0,1,1.42-5.76,3.75,3.75,0,0,1,4.87,3.6Z" transform="translate(-14.24 -15.15)" fill="url(#linear-gradient-10)"></path><path d="M101.66,24.28h4.13a0,0,0,0,1,0,0v1.35a2,2,0,0,1-2,2h-.2a2,2,0,0,1-2-2V24.28A0,0,0,0,1,101.66,24.28Z" fill="#4ea397"></path><path d="M117.1,39.59a.15.15,0,0,1-.16-.13c-.67-3.51-.77-4.05-.79-4.13h0v0a.16.16,0,0,1,.13-.18h.43c.24,0,.32,0,.36-.18a.37.37,0,0,1,.12-.23.29.29,0,0,1,.39.05.51.51,0,0,1,.12.26l.12.47s0,0,0-.07a.72.72,0,0,1,.12-.29.41.41,0,0,1,.34-.13.44.44,0,0,1,.29.14c0-.18.1-.36.16-.53s.2-.21.23-.19a.23.23,0,0,1,.22.19,2,2,0,0,1,.07.43.35.35,0,0,0,0,.13l.12,0,.13,0h.28a.16.16,0,0,1,.12.06.16.16,0,0,1,0,.13l-.81,4.14a.16.16,0,1,1-.31-.06l.77-3.95h-.16c-.12,0-.33.06-.44-.11a.57.57,0,0,1-.07-.27v0a2.17,2.17,0,0,1-.07.24c-.06.23-.21.28-.32.26a.31.31,0,0,1-.2-.16s0-.06-.08-.06a.07.07,0,0,0-.07,0,.42.42,0,0,0-.06.15,1,1,0,0,1-.09.26.31.31,0,0,1-.37.12.38.38,0,0,1-.16-.24l-.13-.54a.14.14,0,0,0,0-.06.6.6,0,0,1-.66.41h-.21c.15.82.75,3.95.75,3.95a.15.15,0,0,1-.12.18Z" transform="translate(-14.24 -15.15)" fill="#4ea397"></path></svg>